<svg aria-hidden="true" style="width:0;height:0;position:absolute;overflow:hidden" xmlns="http://www.w3.org/2000/svg"><defs><symbol id="icon-search-icon" viewBox="0 0 24 24"><path d="m23.166 19.12-3.874-3.869a10.159 10.159 0 0 0 1.279-4.967c0-5.681-4.605-10.286-10.286-10.286S-.001 4.603-.001 10.284c0 5.681 4.605 10.286 10.286 10.286 1.823 0 3.534-.474 5.019-1.305l-.052.027 3.869 3.874a2.861 2.861 0 0 0 4.046-4.046zM2.857 10.286a7.429 7.429 0 1 1 7.429 7.429 7.429 7.429 0 0 1-7.429-7.429z"/></symbol></defs></svg>