<svg aria-hidden="true" style="position: absolute; width: 0; height: 0; overflow: hidden;" version="1.1" xmlns="http://www.w3.org/2000/svg" xmlns:xlink="http://www.w3.org/1999/xlink">
<defs>
<symbol id="icon-search-icon" viewBox="0 0 24 24">
<path d="M23.166 19.12l-3.874-3.869c0.805-1.433 1.279-3.144 1.279-4.967 0-5.681-4.605-10.286-10.286-10.286s-10.286 4.605-10.286 10.286c0 5.681 4.605 10.286 10.286 10.286 1.823 0 3.534-0.474 5.019-1.305l-0.052 0.027 3.869 3.874c0.518 0.518 1.233 0.838 2.023 0.838 1.58 0 2.861-1.281 2.861-2.861 0-0.79-0.32-1.505-0.838-2.023v0zM2.857 10.286c0-4.103 3.326-7.429 7.429-7.429s7.429 3.326 7.429 7.429c0 4.103-3.326 7.429-7.429 7.429v0c-4.103 0-7.429-3.326-7.429-7.429v0z"></path>
</symbol>
</defs>
</svg>